<?xml version="1.0" encoding="UTF-8"?>
<svg width="2000px" height="2000px" viewBox="0 0 2000 2000" version="1.1" xmlns="http://www.w3.org/2000/svg" xmlns:xlink="http://www.w3.org/1999/xlink">
    <title>Icon</title>
    <defs>
        <linearGradient x1="15.9984277%" y1="-17.4400846%" x2="47.502419%" y2="109.897791%" id="linearGradient-1">
            <stop stop-color="#B290DC" offset="0%"></stop>
            <stop stop-color="#7A57B6" offset="100%"></stop>
        </linearGradient>
    </defs>
    <g id="Page-1" stroke="none" stroke-width="1" fill="none" fill-rule="evenodd">
        <rect id="Rectangle" stroke="#979797" fill="url(#linearGradient-1)" x="0.5" y="0.5" width="1999" height="1999" rx="550"></rect>
        <g id="error" transform="translate(624.500000, 999.500000) scale(-1, 1) translate(-624.500000, -999.500000) translate(249.000000, 624.000000)" fill="#FFFFFF">
            <path d="M351.956407,0.307837753 C349.559325,0.589671066 341.381047,1.43517101 333.813789,2.18672651 C245.77979,10.9705314 157.087769,56.3456948 97.1137258,123.328079 C30.7944667,197.403268 -2.90568126,289.3279 0.196424414,387.264976 C5.60160854,556.411937 121.930571,699.630232 286.953193,740.402118 C383.729489,764.310977 490.141114,747.260062 574.461986,694.369343 C658.594852,641.525597 717.487858,560.122742 741.035661,464.017582 C749.119936,431.090057 751,414.320975 751,375.381005 C751,336.441036 749.119936,319.671954 741.035661,286.744428 C703.810393,134.7893 578.598127,22.9954194 422.78782,2.60947648 C409.439365,0.871504379 360.886711,-0.678578842 351.956407,0.307837753 M415.878584,73.0208325 C468.238368,79.784832 517.261038,99.9359139 561.160533,132.722523 C576.62406,144.277688 607.034096,174.668714 618.59649,190.122574 C644.964388,225.39871 664.470052,266.87518 673.306353,306.566705 C683.364696,351.894896 683.364696,398.867115 673.306353,444.195306 C653.847691,531.610605 592.228592,609.20871 510.539809,649.135096 C481.022803,663.555568 450.565766,672.996984 417.147628,678.069983 C397.218949,681.123178 354.353489,681.123178 334.42481,678.069983 C242.865691,664.166207 165.595059,614.234738 116.948401,537.482132 C106.890059,521.652495 93.7296106,494.03283 87.1493864,474.915137 C75.8220005,442.1755 70.933834,412.066308 70.933834,375.381005 C70.933834,326.57687 80.3811558,284.959484 101.296868,241.979904 C117.277413,209.193295 133.539967,186.552685 160.189874,159.919437 C186.839782,133.286189 209.494554,117.033802 242.301672,101.063247 C296.494518,74.7118324 355.434525,65.2234442 415.878584,73.0208325 M361.967748,201.114073 C351.439389,204.543045 345.470186,210.555489 342.556087,220.607544 C340.864029,226.338155 340.676023,239.443404 340.958032,319.765898 C341.334045,412.301169 341.334045,412.348141 344.060138,417.468113 C347.491255,423.903307 354.071479,429.727862 360.322692,431.935557 C366.526903,434.096279 385.045534,434.096279 391.249745,431.935557 C397.500958,429.727862 404.081182,423.903307 407.512299,417.468113 C410.238392,412.348141 410.238392,412.301169 410.614405,319.765898 C410.990418,218.681683 410.990418,218.587739 403.799173,210.085767 C397.970974,203.133879 391.719761,200.83224 377.666283,200.456462 C370.757047,200.268573 363.706807,200.550407 361.967748,201.114073 M365.727876,494.220719 C356.844573,497.132996 348.055274,504.695524 343.778128,513.103551 C340.488016,519.679661 339.923997,531.563633 342.603088,539.54891 C347.021239,552.935992 361.544733,563.26988 375.786219,563.26988 C390.027704,563.26988 404.551198,552.935992 408.969349,539.54891 C411.64844,531.563633 411.084421,519.679661 407.794309,513.103551 C404.739205,507.091107 397.406955,499.669496 391.437752,496.56933 C385.985566,493.750997 371.274065,492.388802 365.727876,494.220719" id="Shape"></path>
        </g>
        <g id="send3" transform="translate(1294.337368, 1374.850227)" stroke="#FFFFFF" stroke-linecap="round" stroke-linejoin="round" stroke-width="30">
            <path d="M406.661479,139.688751 L159.674428,139.688751 M-0.337367625,47.5928468 L57.3251584,47.5928468 M22.7276428,139.688751 L57.3251584,139.688751 M34.260148,231.785346 L57.3251584,231.785346 M157.504703,150.961374 L136.942015,219.089831 C129.157574,244.881482 125.265123,257.777308 128.576797,265.476583 C131.451851,272.162796 137.32351,277.099174 144.412541,278.789146 C152.577786,280.736989 164.644938,274.713872 188.780165,262.667637 L369.155466,172.638611 C390.402953,162.033688 401.029004,156.731226 404.438012,149.554599 C407.404172,143.31045 407.404172,136.067053 404.438012,129.822903 C401.029004,122.646276 390.402953,117.343815 369.155466,106.738892 L188.533369,16.5882978 C164.465031,4.57567846 152.431092,-1.43063123 144.27369,0.508232341 C137.190656,2.19198834 131.319919,7.11524207 128.437023,13.7890218 C125.116354,21.4756339 128.967288,34.3442911 136.669156,60.0818358 L157.529613,129.79067 C158.708004,133.727799 159.296162,135.696364 159.529119,137.701767 C159.736704,139.481534 159.734397,141.277417 159.522199,143.057184 C159.284629,145.062588 158.691859,147.02885 157.504703,150.961374 Z" id="Shape"></path>
        </g>
        <g id="send2" transform="translate(1294.337368, 345.000000)" stroke="#FFFFFF" stroke-linecap="round" stroke-linejoin="round" stroke-width="30">
            <path d="M406.661479,139.538978 L159.674428,139.538978 M-0.337367625,47.4430738 L57.3251584,47.4430738 M22.7276428,139.538978 L57.3251584,139.538978 M34.260148,231.635573 L57.3251584,231.635573 M157.504703,150.811601 L136.942015,218.940058 C129.157574,244.731709 125.265123,257.627535 128.576797,265.32681 C131.451851,272.013023 137.32351,276.9494 144.412541,278.639373 C152.577786,280.587216 164.644938,274.564099 188.780165,262.517864 L369.155466,172.488837 C390.402953,161.883915 401.029004,156.581453 404.438012,149.404826 C407.404172,143.160677 407.404172,135.91728 404.438012,129.67313 C401.029004,122.496503 390.402953,117.194042 369.155466,106.589119 L188.533369,16.4385248 C164.465031,4.42590539 152.431092,-1.5804043 144.27369,0.35845927 C137.190656,2.04221527 131.319919,6.965469 128.437023,13.6392488 C125.116354,21.3258608 128.967288,34.1945181 136.669156,59.9320628 L157.529613,129.640897 C158.708004,133.578026 159.296162,135.546591 159.529119,137.551994 C159.736704,139.331761 159.734397,141.127644 159.522199,142.907411 C159.284629,144.912814 158.691859,146.879077 157.504703,150.811601 Z" id="Shape"></path>
        </g>
        <g id="send1" transform="translate(1294.337368, 859.925113)" stroke="#FFFFFF" stroke-linecap="round" stroke-linejoin="round" stroke-width="30">
            <path d="M406.661479,139.613865 L159.674428,139.613865 M-0.337367625,47.5179603 L57.3251584,47.5179603 M22.7276428,139.613865 L57.3251584,139.613865 M34.260148,231.71046 L57.3251584,231.71046 M157.504703,150.886488 L136.942015,219.014944 C129.157574,244.806596 125.265123,257.702421 128.576797,265.401697 C131.451851,272.087909 137.32351,277.024287 144.412541,278.71426 C152.577786,280.662102 164.644938,274.638985 188.780165,262.592751 L369.155466,172.563724 C390.402953,161.958801 401.029004,156.65634 404.438012,149.479712 C407.404172,143.235563 407.404172,135.992166 404.438012,129.748017 C401.029004,122.57139 390.402953,117.268928 369.155466,106.664005 L188.533369,16.5134113 C164.465031,4.50079193 152.431092,-1.50551776 144.27369,0.433345805 C137.190656,2.11710181 131.319919,7.04035554 128.437023,13.7141353 C125.116354,21.4007474 128.967288,34.2694046 136.669156,60.0069493 L157.529613,129.715783 C158.708004,133.652913 159.296162,135.621477 159.529119,137.626881 C159.736704,139.406647 159.734397,141.202531 159.522199,142.982298 C159.284629,144.987701 158.691859,146.953963 157.504703,150.886488 Z" id="Shape"></path>
        </g>
    </g>
</svg>