<?xml version="1.0" encoding="UTF-8"?>
<svg width="718px" height="718px" viewBox="0 0 718 718" version="1.1" xmlns="http://www.w3.org/2000/svg" xmlns:xlink="http://www.w3.org/1999/xlink">
    <title>Untitled</title>
    <g id="Page-1" stroke="none" stroke-width="1" fill="none" fill-rule="evenodd">
        <g id="error-16-svgrepo-com" transform="translate(359.000000, 359.000000) scale(-1, 1) translate(-359.000000, -359.000000) " fill="#FFFFFF">
            <path d="M336.490946,0.294310928 C334.199195,0.563760087 326.380282,1.37210757 319.14554,2.09063866 C234.979879,10.4884708 150.185111,53.8697855 92.8464116,117.908869 C29.4413144,188.72909 -2.77800152,276.614424 0.187793248,370.248007 C5.35546595,531.962411 116.57277,668.887492 274.344064,707.867804 C366.867874,730.726074 468.603622,714.4244 549.219316,663.857774 C629.655265,613.336057 685.960429,535.510158 708.473508,443.627995 C716.202549,412.147351 718,396.115126 718,358.886234 C718,321.657342 716.202549,305.625117 708.473508,274.144473 C672.88397,128.866468 553.173709,21.9849683 404.209926,2.4948124 C391.448021,0.833209247 345.02884,-0.64876113 336.490946,0.294310928 M397.604292,69.8121941 C447.663313,76.2789739 494.531858,95.5445888 536.502347,126.890508 C551.286385,137.937923 580.360161,166.993524 591.414487,181.76832 C616.623742,215.494373 635.2723,255.148308 643.720322,293.095731 C653.336687,336.432137 653.336687,381.340331 643.720322,424.676737 C625.1167,508.250885 566.205231,582.43922 488.105969,620.611184 C459.885982,634.397999 430.76727,643.424546 398.817572,648.274631 C379.764587,651.193664 338.782696,651.193664 319.729712,648.274631 C232.19383,634.981806 158.318578,587.244397 111.809524,513.864409 C102.193159,498.730348 89.6109992,472.32433 83.3199194,454.046695 C72.4902748,422.745685 67.8169012,393.959533 67.8169012,358.886234 C67.8169012,312.226621 76.8490944,272.437962 96.845741,231.346965 C112.124078,200.001046 127.672032,178.355297 153.150905,152.892352 C178.629779,127.429406 200.289068,111.891171 231.654594,96.6223854 C283.46613,71.428889 339.816231,62.357434 397.604292,69.8121941 M346.062374,192.276837 C335.996646,195.555135 330.289738,201.303384 327.503689,210.913737 C325.885982,216.392537 325.706237,228.921923 325.975855,305.714933 C326.335345,394.184074 326.335345,394.228982 328.94165,399.123975 C332.221999,405.276398 338.513078,410.845014 344.489604,412.955699 C350.421194,415.021475 368.12609,415.021475 374.057679,412.955699 C380.034205,410.845014 386.325285,405.276398 389.605634,399.123975 C392.211938,394.228982 392.211938,394.184074 392.571428,305.714933 C392.930919,209.072501 392.930919,208.982685 386.055667,200.854302 C380.483568,194.207889 374.507042,192.007388 361.071093,191.648122 C354.465459,191.46849 347.725017,191.737939 346.062374,192.276837 M349.657277,472.503963 C341.164319,475.288271 332.761234,482.51849 328.672032,490.557057 C325.526492,496.844204 324.987257,508.205976 327.548625,515.840369 C331.772636,528.639204 345.657948,538.519007 359.273642,538.519007 C372.889336,538.519007 386.774648,528.639204 390.998659,515.840369 C393.560027,508.205976 393.020791,496.844204 389.875251,490.557057 C386.954393,484.808808 379.944333,477.713313 374.237424,474.749372 C369.024815,472.054881 354.959758,470.752543 349.657277,472.503963" id="Shape"></path>
        </g>
    </g>
</svg>